Coordinates
version=1
nRows=19
nColumns=24
inDegrees=yes

Units are S.I. units (second, meters, Newtons, ...)
Angles are in degrees.

endheader
time	pelvis_tilt	pelvis_list	pelvis_rotation	pelvis_tx	pelvis_ty	pelvis_tz	hip_flexion_r	hip_adduction_r	hip_rotation_r	knee_angle_r	ankle_angle_r	subtalar_angle_r	mtp_angle_r	hip_flexion_l	hip_adduction_l	hip_rotation_l	knee_angle_l	ankle_angle_l	subtalar_angle_l	mtp_angle_l	lumbar_extension	lumbar_bending	lumbar_rotation
      1.05866667	     -4.08485112	     -1.58120897	     -6.48917330	     -0.08575169	      0.88270635	      0.34443476	    -14.03552382	      6.13802628	      1.74760512	     -6.62025067	     18.64377886	      9.51909572	      6.96183457	     30.05475628	     -3.04682728	     -7.30873854	     -5.02964501	      3.51430931	     -5.28826454	      0.99911696	     -3.47756693	      2.68585586	     10.53776680
      1.06283333	     -4.17480185	     -1.52126289	     -6.57720304	     -0.08016830	      0.88145571	      0.34436251	    -14.05112259	      5.99950534	      1.74475444	     -7.19562749	     18.90705750	      9.74190994	      7.09135420	     30.28434092	     -2.98477935	     -7.18939003	     -5.55498740	      3.43371404	     -5.19102259	      1.02967090	     -3.38694546	      2.56108082	     10.61297022
      1.06700000	     -4.24858835	     -1.44950626	     -6.65267741	     -0.07454052	      0.88027577	      0.34426872	    -14.07450263	      5.84805014	      1.72654356	     -7.79098763	     19.13448707	      9.95533219	      7.23292398	     30.49173852	     -2.90237134	     -7.08090501	     -6.14092609	      3.30990801	     -5.12749991	      1.07510130	     -3.31002256	      2.41786403	     10.67386721
      1.07116667	     -4.31010056	     -1.36656746	     -6.71986557	     -0.06887103	      0.87916520	      0.34415996	    -14.09799501	      5.68272398	      1.69491962	     -8.41239873	     19.32433328	     10.16991796	      7.38957095	     30.68196338	     -2.80381825	     -6.99035714	     -6.78286456	      3.13968972	     -5.09142362	      1.13494067	     -3.23693426	      2.25616118	     10.72447715
      1.07533333	     -4.37120543	     -1.26861644	     -6.77560747	     -0.06316342	      0.87810962	      0.34402653	    -14.10573850	      5.50092798	      1.64265915	     -9.06378004	     19.47985560	     10.40669195	      7.57462829	     30.86896999	     -2.68379827	     -6.90768937	     -7.47412218	      2.92465724	     -5.08199309	      1.21339672	     -3.16670926	      2.07851375	     10.76424040
      1.07950000	     -4.41884471	     -1.16105058	     -6.81938320	     -0.05740757	      0.87713115	      0.34387256	    -14.11482554	      5.30826503	      1.57668870	     -9.74111542	     19.59097855	     10.63540592	      7.78772431	     31.03408809	     -2.54652388	     -6.83571971	     -8.19994620	      2.66219994	     -5.11695799	      1.30854407	     -3.09943398	      1.88402477	     10.79137848
      1.08366667	     -4.45905282	     -1.04182705	     -6.85151362	     -0.05160920	      0.87622514	      0.34369323	    -14.11645558	      5.10181634	      1.48967099	    -10.44785112	     19.65862573	     10.87321953	      8.04232164	     31.18483175	     -2.39010654	     -6.77279108	     -8.95363113	      2.35337660	     -5.18821759	      1.42394570	     -3.03423537	      1.67410019	     10.80628958
      1.08783333	     -4.45494381	     -0.91595998	     -6.85316289	     -0.04574218	      0.87544639	      0.34346059	    -14.17105843	      4.88474513	      1.36283762	    -11.13212765	     19.56625621	     11.06954685	     11.64462614	     31.27167199	     -2.20055509	     -6.66551703	     -9.70321945	      1.96290412	     -5.43737183	      3.17175385	     -3.01682070	      1.45759514	     10.81615425
      1.09200000	     -4.48805905	     -0.78439032	     -6.86572688	     -0.03986226	      0.87468860	      0.34326239	    -14.15617483	      4.66978655	      1.30334672	    -11.88329149	     19.50334247	     11.20582429	     11.68414915	     31.41082336	     -2.02787528	     -6.65722127	    -10.51679096	      1.60886051	     -5.49296879	      3.19444772	     -2.94695671	      1.22274769	     10.79376021
      1.09616667	     -4.51303224	     -0.64492551	     -6.85649893	     -0.03394703	      0.87399869	      0.34300787	    -14.12333845	      4.44234438	      1.17720118	    -12.68595758	     19.42377080	     11.43447923	     11.77795330	     31.53778509	     -1.83134464	     -6.61653424	    -11.34424643	      1.23860625	     -5.65212361	      3.23355235	     -2.88475916	      0.98517830	     10.76739151
      1.10033333	     -4.52598414	     -0.49559057	     -6.83748811	     -0.02798337	      0.87340561	      0.34272788	    -14.08538863	      4.20063710	      1.03473842	    -13.51912875	     19.27919544	     11.65871924	     11.92417545	     31.63864857	     -1.61741225	     -6.57137880	    -12.16702605	      0.84358574	     -5.85835281	      3.28306694	     -2.82207301	      0.73398402	     10.72658052
      1.10450000	     -4.53437054	     -0.34163474	     -6.79950825	     -0.02198505	      0.87288938	      0.34241416	    -14.03128225	      3.95568893	      0.88101497	    -14.39158425	     19.07047826	     11.87484205	     12.12147413	     31.73252714	     -1.38979532	     -6.52467691	    -13.00072819	      0.45752263	     -6.09325351	      3.34041358	     -2.76586685	      0.47736043	     10.67200659
      1.10866667	     -4.49600482	     -0.18270513	     -6.74257693	     -0.01597224	      0.87250769	      0.34201705	    -13.98475887	      3.68783693	      0.63382671	    -15.34480936	     18.86187455	     12.22089064	     12.77165525	     31.75801485	     -1.12867374	     -6.40060628	    -13.80884312	      0.10653264	     -6.47049241	      3.51099525	     -2.78709444	      0.23020463	     10.60467717
      1.11283333	     -4.52270630	     -0.02149261	     -6.68723146	     -0.00987816	      0.87214111	      0.34171232	    -13.89184944	      3.44728249	      0.54698964	    -16.23734557	     18.44353154	     12.26615122	     12.99219720	     31.86974920	     -0.90423309	     -6.42319068	    -14.67529877	     -0.26408609	     -6.61407359	      3.55658733	     -2.67195782	     -0.05916567	     10.53723498
      1.11700000	     -4.49548755	      0.14852084	     -6.61973835	     -0.00379780	      0.87191509	      0.34129535	    -13.79290607	      3.16973234	      0.34115117	    -17.24068016	     17.98334426	     12.41957322	     17.44162989	     31.89668126	     -0.63367633	     -6.33030954	    -15.48743559	     -0.63966702	     -7.07243097	      4.40269373	     -2.66172352	     -0.32291364	     10.45957258
      1.12116667	     -4.49318629	      0.29604826	     -6.52183363	      0.00233085	      0.87171803	      0.34087730	    -13.65949792	      2.92925895	      0.14254033	    -18.26553937	     17.47619725	     12.61648571	     17.50544470	     31.98104106	     -0.40016772	     -6.30925915	    -16.39120108	     -0.80705507	     -7.14270707	      4.41255949	     -2.59336471	     -0.58025660	     10.36795013
      1.12533333	     -4.47992383	      0.45708735	     -6.43130822	      0.00843940	      0.87160135	      0.34041304	    -13.47073585	      2.65725287	     -0.09187541	    -19.41572609	     17.03413608	     12.87618910	     17.69242163	     32.03560706	     -0.14480450	     -6.25879320	    -17.26027468	     -1.00651753	     -7.37447381	      4.42256950	     -2.55711763	     -0.82232156	     10.25067719
      1.12950000	     -4.43919372	      0.64108133	     -6.33822816	      0.01461095	      0.87160951	      0.33992546	    -13.29093928	      2.34753521	     -0.33842599	    -20.58764033	     16.48834853	     13.16468731	     18.20077843	     32.03816643	      0.14315570	     -6.19955631	    -18.10169574	     -1.12218266	     -7.69152254	      4.43109026	     -2.53870001	     -1.12191245	     10.12969912
      1.13366667	     -4.44258115	      0.79044199	     -6.23154116	      0.02074432	      0.87163635	      0.33942336	    -13.01879825	      2.08475684	     -0.55909104	    -21.83359535	     15.81553703	     13.33759887	     18.52948525	     32.08731509	      0.38956821	     -6.12669655	    -18.94358153	     -1.20851039	     -7.80363409	      4.42902631	     -2.47142139	     -1.34115667	     10.02950586
